<svg width="54" height="50" viewBox="0 0 54 50" fill="none" xmlns="http://www.w3.org/2000/svg">
<path fill-rule="evenodd" clip-rule="evenodd" d="M35.4211 2.188C35.3239 2.10168 35.2267 2.01536 35.1295 1.929C35.0035 1.81692 34.9921 1.62383 35.1042 1.49773C35.2162 1.37164 35.4093 1.36027 35.5354 1.47235C35.642 1.56709 35.7488 1.66189 35.8556 1.75678C38.8668 4.43076 41.9648 7.1819 43.9394 10.8435C44.3889 11.6771 44.9109 12.8279 45.2806 14.028C45.6481 15.2209 45.8762 16.4975 45.7041 17.5674C45.6071 18.1702 45.2319 18.7929 44.8351 19.3362C44.5645 19.7067 44.2603 20.07 44.0004 20.3803C43.8789 20.5254 43.7671 20.6589 43.6729 20.7762C43.3197 21.2162 42.9445 21.6506 42.5401 22.0406C43.2324 23.0697 43.707 24.1554 43.8211 25.1534C43.9833 26.5735 43.4259 28.1943 42.6614 29.6726C41.8917 31.1611 40.8864 32.5536 40.0902 33.5339C35.654 38.9965 29.6177 41.3487 23.0343 42.8181C20.3259 43.4226 17.7329 43.7515 14.9571 43.3048C14.8704 43.2908 14.7634 43.2776 14.6372 43.262C14.5231 43.2479 14.3932 43.2318 14.2481 43.2115C13.9617 43.1714 13.6378 43.1169 13.3746 43.0345C13.2439 42.9937 13.1109 42.9408 13.001 42.8688C12.8958 42.7998 12.7653 42.6823 12.7309 42.498C12.6947 42.3042 12.7823 42.139 12.8866 42.0198C12.9908 41.9007 13.1434 41.7886 13.3334 41.6782C13.4793 41.5935 13.6662 41.6431 13.751 41.789C13.8357 41.9349 13.7861 42.1218 13.6402 42.2066C13.5137 42.28 13.4329 42.3398 13.3836 42.3847C13.4257 42.4056 13.483 42.4283 13.5569 42.4514C13.769 42.5178 14.0505 42.5669 14.3329 42.6065C14.4517 42.6231 14.5768 42.6387 14.6934 42.6533C14.8351 42.671 14.9642 42.6871 15.0542 42.7016C17.7202 43.1306 20.2264 42.8189 22.9012 42.2218C29.433 40.764 35.3079 38.4535 39.616 33.1488C40.3959 32.1884 41.3744 30.8314 42.1187 29.392C42.8683 27.9424 43.3551 26.457 43.2141 25.2228C43.1159 24.3636 42.7031 23.395 42.0802 22.4521C41.7545 22.7206 41.4101 22.955 41.044 23.1378C39.9994 23.6596 38.7993 23.7519 37.3991 23.0942C36.6359 22.7358 36.0752 22.1711 35.6164 21.5483C35.2565 21.0596 34.9486 20.5189 34.657 20.0069C34.5808 19.873 34.5056 19.741 34.431 19.6125C34.2278 19.2626 34.0588 18.9687 33.954 18.7315C33.8577 18.5137 33.769 18.2483 33.8624 18.0044C33.9659 17.734 34.231 17.6282 34.466 17.5748C34.715 17.5183 35.0538 17.4934 35.4755 17.4768C37.2606 17.4067 39.2544 18.5284 40.8237 20.0199C41.3168 20.4885 41.7764 21.0015 42.181 21.5374C42.5314 21.1921 42.8678 20.8031 43.1965 20.3937C43.3053 20.2582 43.4255 20.1148 43.5519 19.964C43.8048 19.6621 44.0824 19.331 44.3417 18.9759C44.7309 18.443 45.0285 17.9202 45.1009 17.4703C45.2507 16.5392 45.0548 15.3702 44.6967 14.2079C44.3409 13.0528 43.836 11.9389 43.4016 11.1335C41.4794 7.56903 38.4544 4.88224 35.4211 2.188ZM41.7276 21.9509C41.3397 21.4315 40.892 20.9276 40.4028 20.4627C38.8796 19.015 37.0403 18.0268 35.4995 18.0873C35.0747 18.104 34.7884 18.1281 34.6014 18.1706C34.4949 18.1948 34.45 18.2184 34.4334 18.2297C34.434 18.2518 34.4413 18.3229 34.5128 18.4845C34.6011 18.6844 34.7506 18.9463 34.9593 19.3056C35.0398 19.4443 35.1189 19.5831 35.1976 19.7212C35.4871 20.2293 35.7718 20.7291 36.1083 21.1859C36.5316 21.7606 37.0193 22.2409 37.6588 22.5412C38.8914 23.1202 39.8953 23.0287 40.771 22.5913C41.1043 22.4248 41.4219 22.2067 41.7276 21.9509ZM34.425 18.2367C34.4249 18.2367 34.4253 18.2361 34.4264 18.2351C34.4256 18.2362 34.425 18.2367 34.425 18.2367ZM13.3113 42.3388C13.3113 42.3388 13.3119 42.3393 13.3128 42.3404C13.3117 42.3394 13.3113 42.3388 13.3113 42.3388ZM13.3276 42.4466C13.3272 42.4474 13.327 42.4479 13.327 42.4478C13.327 42.4478 13.3272 42.4474 13.3276 42.4466Z" fill="white" stroke="white" stroke-linecap="round" stroke-linejoin="round"/>
<path fill-rule="evenodd" clip-rule="evenodd" d="M15.5942 39.5303C15.7262 39.6354 15.7479 39.8276 15.6428 39.9596C15.4398 40.2145 15.2336 40.5157 15.0136 40.8373C14.9264 40.9647 14.8371 41.0952 14.7449 41.2273C14.4283 41.6811 14.0816 42.1475 13.7066 42.4933C13.6001 42.5914 13.4434 42.6726 13.3183 42.7334C13.2627 42.7605 13.2124 42.7841 13.165 42.8061C15.0136 43.4797 17.1008 44.4403 18.6826 45.4788C18.8236 45.5714 18.8628 45.7608 18.7703 45.9018C18.6777 46.0428 18.4883 46.0821 18.3472 45.9895C16.7102 44.9147 14.4899 43.913 12.5827 43.2469C12.5078 43.2208 12.3976 43.1738 12.3218 43.0774C12.2778 43.0214 12.2442 42.947 12.2419 42.8591C12.2396 42.7746 12.267 42.7054 12.2955 42.6569C12.3468 42.5699 12.4248 42.5112 12.4745 42.4772C12.5318 42.4382 12.5972 42.4023 12.6598 42.3704C12.7281 42.3356 12.8165 42.2943 12.8996 42.2556C12.955 42.2298 13.008 42.205 13.0509 42.1841C13.1838 42.1194 13.2612 42.0729 13.2925 42.0441C13.6141 41.7475 13.9282 41.3301 14.2438 40.8777C14.3276 40.7577 14.4119 40.6345 14.4963 40.5112C14.7214 40.1822 14.9471 39.8524 15.1649 39.5789C15.27 39.447 15.4622 39.4252 15.5942 39.5303ZM12.7573 42.6591C12.7574 42.6591 12.7583 42.6595 12.7599 42.6605C12.7581 42.6596 12.7572 42.6591 12.7573 42.6591Z" fill="white" stroke="white" stroke-linecap="round" stroke-linejoin="round"/>
</svg>
