<svg width="192" height="12" viewBox="0 0 192 12" fill="none" xmlns="http://www.w3.org/2000/svg">
<path d="M191.643 6.45149C191.856 6.80667 191.741 7.26737 191.386 7.48049L185.598 10.9534C185.243 11.1665 184.782 11.0514 184.569 10.6962C184.356 10.341 184.471 9.88031 184.826 9.66719L189.971 6.58014L186.884 1.43523C186.671 1.08005 186.786 0.619349 187.141 0.406233C187.496 0.193116 187.957 0.308283 188.17 0.663465L191.643 6.45149ZM190.818 7.56498C171.924 2.84186 137.514 1.21291 101.202 1.90074C64.9117 2.58814 26.827 5.58673 0.626724 10.0784L0.373276 8.59992C26.673 4.09126 64.8383 1.08926 101.173 0.401005C137.486 -0.286829 172.076 1.33348 191.182 6.10976L190.818 7.56498Z" fill="#106A64"/>
</svg>
