<svg width="76" height="20" viewBox="0 0 76 20" fill="none" xmlns="http://www.w3.org/2000/svg">
<path fill-rule="evenodd" clip-rule="evenodd" d="M2.91663 8.59797C2.91663 4.76475 6.11986 1.6665 9.9945 1.6665C13.8801 1.6665 17.0833 4.76475 17.0833 8.59797C17.0833 10.5296 16.3808 12.3229 15.2245 13.8428C13.949 15.5194 12.3768 16.9802 10.6071 18.1269C10.2021 18.3919 9.83652 18.4119 9.392 18.1269C7.61224 16.9802 6.04003 15.5194 4.77538 13.8428C3.61828 12.3229 2.91663 10.5296 2.91663 8.59797ZM7.66182 8.8138C7.66182 10.0979 8.70967 11.1079 9.9945 11.1079C11.2802 11.1079 12.3381 10.0979 12.3381 8.8138C12.3381 7.53967 11.2802 6.48053 9.9945 6.48053C8.70967 6.48053 7.66182 7.53967 7.66182 8.8138Z" fill="#130F26"/>
<path fill-rule="evenodd" clip-rule="evenodd" d="M37.6098 10.3938C40.9341 13.7171 41.6882 9.87243 43.8047 11.9875C45.8453 14.0275 47.0181 14.4362 44.4327 17.0208C44.1089 17.281 42.0514 20.412 34.8205 13.1832C27.5888 5.9535 30.718 3.89387 30.9783 3.57012C33.5699 0.978368 33.9716 2.15798 36.0121 4.19794C38.1287 6.31391 34.2856 7.07051 37.6098 10.3938Z" fill="#130F26"/>
<path fill-rule="evenodd" clip-rule="evenodd" d="M70.1162 2.5C71.2337 2.5 72.3087 2.94167 73.0995 3.73417C73.8912 4.525 74.3337 5.59167 74.3337 6.70833V13.2917C74.3337 15.6167 72.442 17.5 70.1162 17.5H61.8837C59.5578 17.5 57.667 15.6167 57.667 13.2917V6.70833C57.667 4.38333 59.5495 2.5 61.8837 2.5H70.1162ZM71.442 7.95L71.5087 7.88333C71.7078 7.64167 71.7078 7.29167 71.4995 7.05C71.3837 6.92583 71.2245 6.85 71.0587 6.83333C70.8837 6.82417 70.717 6.88333 70.5912 7L66.8337 10C66.3503 10.4008 65.6578 10.4008 65.167 10L61.417 7C61.1578 6.80833 60.7995 6.83333 60.5837 7.05833C60.3587 7.28333 60.3337 7.64167 60.5245 7.89167L60.6337 8L64.4253 10.9583C64.892 11.325 65.4578 11.525 66.0503 11.525C66.6412 11.525 67.217 11.325 67.6828 10.9583L71.442 7.95Z" fill="#130F26"/>
</svg>
