<svg width="19" height="19" viewBox="0 0 19 19" fill="none" xmlns="http://www.w3.org/2000/svg">
<path d="M8.60462 13.1661C8.55871 13.1214 8.36238 12.9525 8.20088 12.7952C7.18517 11.8728 5.52267 9.46653 5.01521 8.20712C4.93367 8.01585 4.76108 7.53229 4.75 7.27393C4.75 7.02636 4.807 6.79037 4.92258 6.56517C5.08408 6.28444 5.33821 6.05924 5.63825 5.93585C5.84646 5.85641 6.4695 5.73301 6.48058 5.73301C7.16221 5.60962 8.26975 5.54175 9.49367 5.54175C10.6598 5.54175 11.7222 5.60962 12.4141 5.71065C12.4252 5.72222 13.1995 5.84561 13.4647 5.98058C13.9492 6.22814 14.25 6.7117 14.25 7.2292V7.27393C14.2381 7.61096 13.9373 8.31972 13.9262 8.31972C13.418 9.51126 11.837 11.862 10.7865 12.8067C10.7865 12.8067 10.5165 13.0728 10.3479 13.1885C10.1056 13.369 9.80558 13.4584 9.50554 13.4584C9.17067 13.4584 8.85875 13.3574 8.60462 13.1661Z" fill="#0A0A0A"/>
</svg>
