<svg width="12" height="12" viewBox="0 0 12 12" fill="none" xmlns="http://www.w3.org/2000/svg">
<path d="M5.58866 9.78523C5.63453 9.85186 5.69591 9.90633 5.76751 9.94396C5.83911 9.98159 5.91878 10.0013 5.99966 10.0013C6.08055 10.0013 6.16022 9.98159 6.23182 9.94396C6.30342 9.90633 6.36479 9.85186 6.41066 9.78523L10.9107 3.28523C10.9628 3.21026 10.9933 3.12245 10.999 3.03134C11.0047 2.94022 10.9853 2.84929 10.9429 2.76843C10.9005 2.68756 10.8368 2.61986 10.7587 2.57266C10.6805 2.52547 10.591 2.50059 10.4997 2.50073H1.49966C1.40858 2.50111 1.31933 2.52631 1.2415 2.57361C1.16367 2.62092 1.10021 2.68855 1.05795 2.76923C1.01568 2.84991 0.996206 2.94058 1.00162 3.0315C1.00703 3.12242 1.03712 3.21014 1.08866 3.28523L5.58866 9.78523Z" fill="#106A64"/>
</svg>
