<svg width="164" height="50" viewBox="0 0 164 50" fill="none" xmlns="http://www.w3.org/2000/svg">
<path d="M56.315 47.3433C67.032 47.9795 77.7863 48.822 88.5408 48.5C97.4477 48.2334 106.355 47.1692 115.167 45.9643C129.041 44.0675 144.455 41.8451 156.639 34.6479C160.239 32.5211 164.861 27.0945 162.681 22.9546C160.579 18.966 156.141 16.2726 152.248 13.995C147.431 11.1765 142.13 8.50727 136.71 6.87037C116.864 0.876598 94.6501 -0.566421 73.9326 1.18781C57.4235 2.5857 40.7712 5.10479 24.5993 8.55468C17.3228 10.107 8.81032 12.0147 3.88104 17.8047C1.3156 20.8182 1.07639 24.3023 1.08571 27.9574C1.09887 33.1251 3.54756 34.4447 9.03429 36.219C30.0344 43.0102 53.2626 44.9027 75.3369 46.1824C77.7553 46.3226 78.2007 46.7639 79.4548 45.4813" stroke="#106A64" stroke-linecap="round"/>
</svg>
