<svg width="229" height="62" viewBox="0 0 229 62" fill="none" xmlns="http://www.w3.org/2000/svg">
<path d="M78.2069 59.5214C93.1547 60.2282 108.153 61.1887 123.16 60.7154C135.589 60.3234 148.023 58.9491 160.327 57.4024C179.697 54.9675 201.218 52.1204 218.269 43.1705C223.307 40.5258 229.795 33.8102 226.782 28.7278C223.879 23.831 217.705 20.5461 212.29 17.7692C205.589 14.3329 198.213 11.0838 190.663 9.10677C163.017 1.86774 132.034 0.249584 103.117 2.55793C80.0735 4.39738 56.8222 7.61854 34.2347 11.9825C24.0714 13.9461 12.1812 16.3562 5.26254 23.5215C1.6617 27.2507 1.30305 31.5429 1.28991 36.0438C1.27133 42.4074 4.67829 44.0149 12.3206 46.1606C41.5713 54.3733 73.9657 56.5378 104.754 57.9558C108.128 58.1111 108.746 58.6514 110.505 57.0629" stroke="white" stroke-width="2" stroke-linecap="round"/>
</svg>
