<svg width="120" height="120" viewBox="0 0 120 120" fill="none" xmlns="http://www.w3.org/2000/svg">
<circle cx="60" cy="60" r="60" fill="#CFE1E0" fill-opacity="0.3"/>
<path d="M54.9615 58.906C54.2719 58.7074 53.5823 58.6067 52.9114 58.6067C51.8755 58.6067 51.0112 58.8434 50.3409 59.1333C50.9871 56.7677 52.5393 52.6861 55.6315 52.2264C55.9178 52.1838 56.1525 51.9767 56.2306 51.698L56.9064 49.2808C56.9634 49.0764 56.9296 48.8575 56.813 48.6801C56.6964 48.5027 56.5091 48.3844 56.2991 48.3556C56.0708 48.3245 55.8382 48.3086 55.6077 48.3086C51.8961 48.3086 48.2203 52.1826 46.6693 57.7296C45.7588 60.984 45.4918 65.8766 47.7346 68.9561C48.9896 70.6793 50.8205 71.5995 53.1767 71.6915C53.1863 71.6918 53.1957 71.6921 53.2054 71.6921C56.1126 71.6921 58.6904 69.7342 59.4746 66.9313C59.9431 65.2557 59.7313 63.4984 58.8778 61.982C58.0334 60.4826 56.6427 59.3897 54.9615 58.906Z" fill="#106A64"/>
<path d="M73.1593 61.9823C72.3149 60.4826 70.9242 59.3897 69.243 58.906C68.5534 58.7074 67.8638 58.6067 67.1932 58.6067C66.1573 58.6067 65.2926 58.8434 64.6224 59.1333C65.2686 56.7677 66.8208 52.6861 69.9133 52.2264C70.1996 52.1838 70.434 51.9767 70.5124 51.698L71.1882 49.2808C71.2452 49.0764 71.2114 48.8575 71.0948 48.6801C70.9785 48.5027 70.7911 48.3844 70.5809 48.3556C70.3529 48.3245 70.1203 48.3086 69.8895 48.3086C66.1779 48.3086 62.5021 52.1826 60.9508 57.7296C60.0406 60.984 59.7736 65.8766 62.0166 68.9567C63.2714 70.6796 65.1026 71.6001 67.4584 71.6918C67.4681 71.6921 67.4775 71.6924 67.4875 71.6924C70.3943 71.6924 72.9725 69.7345 73.7567 66.9316C74.2246 65.256 74.0125 63.4984 73.1593 61.9823Z" fill="#106A64"/>
</svg>
